<?xml version="1.0" encoding="UTF-8"?>
<svg version="1.1" xmlns="http://www.w3.org/2000/svg" width="256" height="256">
<path d="M0 0 C12.89762549 1.83954547 12.89762549 1.83954547 17 4 C18.14282227 5.77587891 18.14282227 5.77587891 18.94140625 8.0390625 C19.26343018 8.93455811 19.5854541 9.83005371 19.91723633 10.75268555 C20.45320435 12.3601062 20.45320435 12.3601062 21 14 C21.21385345 14.62999908 21.42770691 15.25999817 21.64804077 15.90908813 C23.13735392 20.29927991 24.5806998 24.70315498 26.00146484 29.1159668 C26.75686811 31.45880101 27.52071898 33.79877183 28.28515625 36.13867188 C28.76873599 37.63264854 29.25182707 39.12678349 29.734375 40.62109375 C29.96243835 41.31794785 30.19050171 42.01480194 30.42547607 42.73277283 C31.34653354 45.61256507 32 47.9551787 32 51 C33.16345947 50.97381592 34.32691895 50.94763184 35.52563477 50.9206543 C39.91459294 50.828956 44.30346987 50.77232404 48.69311523 50.7253418 C50.5793286 50.70046618 52.46544838 50.66655267 54.35131836 50.62280273 C66.6070222 50.34596648 76.63437624 51.13121401 88 56 C86.18011606 60.05961876 83.67897098 61.93725312 80.0625 64.375 C78.80091559 65.24962008 77.54056877 66.12602713 76.28125 67.00390625 C75.25644531 67.71571045 75.25644531 67.71571045 74.2109375 68.44189453 C70.11177454 71.33068185 66.09166528 74.32726374 62.0625 77.3125 C56.73914162 81.25344215 51.40140419 85.16651341 46 89 C48.50479505 100.27366855 52.29363982 111.07182956 56.0378418 121.9765625 C56.85708878 124.36810885 57.66906805 126.76203243 58.48046875 129.15625 C58.73354294 129.88541626 58.98661713 130.61458252 59.24736023 131.36584473 C60.40893219 134.800256 61 137.32931568 61 141 C59.16382471 140.59604144 57.33117204 140.17606478 55.5 139.75 C53.96859375 139.40195312 53.96859375 139.40195312 52.40625 139.046875 C44.40333378 136.58726313 38.12830398 132.13612548 31.5 127.125 C30.29537109 126.22587891 30.29537109 126.22587891 29.06640625 125.30859375 C28.27105469 124.71433594 27.47570312 124.12007813 26.65625 123.5078125 C25.87765625 122.92676758 25.0990625 122.34572266 24.296875 121.74707031 C22.76732686 120.58365126 21.25647163 119.39523326 19.765625 118.18261719 C19.06953125 117.62477539 18.3734375 117.06693359 17.65625 116.4921875 C17.04587891 115.98800293 16.43550781 115.48381836 15.80664062 114.96435547 C14.0447863 113.81038136 14.0447863 113.81038136 12.00244141 114.18896484 C9.83563652 115.06657102 8.18537617 116.09602603 6.3046875 117.484375 C5.59739502 118.00177246 4.89010254 118.51916992 4.16137695 119.05224609 C3.02962036 119.89263428 3.02962036 119.89263428 1.875 120.75 C1.08891357 121.32186035 0.30282715 121.8937207 -0.50708008 122.48291016 C-4.69341072 125.53273125 -8.83534275 128.63206126 -12.94140625 131.7890625 C-13.73724121 132.39008789 -14.53307617 132.99111328 -15.35302734 133.61035156 C-16.88041297 134.76491581 -18.39574387 135.93564741 -19.89697266 137.12402344 C-23.4444375 139.78605547 -25.1352938 141.00458974 -29.6796875 140.98046875 C-32.6843638 140.09320551 -35.55464444 139.16172633 -38.4375 137.9375 C-39.30246094 137.57527344 -40.16742188 137.21304688 -41.05859375 136.83984375 C-41.69925781 136.56269531 -42.33992188 136.28554687 -43 136 C-42.37625147 130.02621329 -40.73321571 124.6896746 -38.8046875 119.015625 C-38.16522143 117.09249551 -37.52590282 115.16931699 -36.88671875 113.24609375 C-35.87781276 110.23417635 -34.86598917 107.22327688 -33.85107422 104.21337891 C-32.86969104 101.29576605 -31.89914962 98.37471653 -30.9296875 95.453125 C-30.62143036 94.54999573 -30.31317322 93.64686646 -29.99557495 92.71636963 C-29.5798674 91.45926178 -29.5798674 91.45926178 -29.15576172 90.17675781 C-28.90784882 89.4406427 -28.65993591 88.70452759 -28.4045105 87.94610596 C-27.7879815 85.79826612 -27.7879815 85.79826612 -29 83 C-30.48437429 81.6178613 -30.48437429 81.6178613 -32.3671875 80.35546875 C-33.07915283 79.85015625 -33.79111816 79.34484375 -34.5246582 78.82421875 C-35.68807739 78.01404297 -35.68807739 78.01404297 -36.875 77.1875 C-38.5122989 76.02555664 -40.14899713 74.86276651 -41.78515625 73.69921875 C-42.63867676 73.09513184 -43.49219727 72.49104492 -44.37158203 71.86865234 C-48.7123131 68.78264495 -53.01590995 65.64705271 -57.3125 62.5 C-58.10575684 61.92531982 -58.89901367 61.35063965 -59.71630859 60.75854492 C-60.46605957 60.2091626 -61.21581055 59.65978027 -61.98828125 59.09375 C-62.64352783 58.61615234 -63.29877441 58.13855469 -63.97387695 57.64648438 C-66.47583917 55.61331976 -68.72035383 53.27964617 -71 51 C-52.85 51 -34.7 51 -16 51 C-14.515 45.555 -14.515 45.555 -13 40 C-11.97614895 36.71562661 -10.93710672 33.44339049 -9.86328125 30.17578125 C-9.57897751 29.30350388 -9.29467377 28.4312265 -9.00175476 27.53251648 C-8.10781173 24.79169536 -7.2102288 22.05208315 -6.3125 19.3125 C-5.69962672 17.43562623 -5.08699449 15.55867373 -4.47460938 13.68164062 C-2.98585158 9.12018094 -1.49383197 4.55980033 0 0 Z M0 20 C-1.57218899 24.78536926 -3.13861184 29.57257245 -4.69970703 34.36157227 C-5.2316511 35.99067125 -5.76517079 37.61925664 -6.30029297 39.24731445 C-7.06892478 41.58672165 -7.83188251 43.92791374 -8.59375 46.26953125 C-8.83436157 46.99775589 -9.07497314 47.72598053 -9.32287598 48.47627258 C-10.2806755 51.43575837 -11 53.86800518 -11 57 C-24.53 57 -38.06 57 -52 57 C-48.78637737 60.21362263 -46.16827982 62.77583696 -42.6015625 65.375 C-41.79203125 65.96796875 -40.9825 66.5609375 -40.1484375 67.171875 C-39.31570312 67.77515625 -38.48296875 68.3784375 -37.625 69 C-36.8 69.60328125 -35.975 70.2065625 -35.125 70.828125 C-30.43872358 74.24985064 -25.72770798 77.63580888 -21 81 C-21.57655279 85.79005674 -22.54395213 90.12817512 -24.06640625 94.703125 C-24.46923828 95.9303125 -24.87207031 97.1575 -25.28710938 98.421875 C-25.71169855 99.69809679 -26.13683447 100.97413681 -26.5625 102.25 C-27.40237818 104.77438676 -28.23589958 107.30061193 -29.06640625 109.828125 C-29.43709229 110.9409082 -29.80777832 112.05369141 -30.18969727 113.20019531 C-31.1390026 115.99450586 -31.1390026 115.99450586 -31 119 C-28.22414196 117.68041161 -25.74310149 116.20980937 -23.2421875 114.42578125 C-22.53860107 113.9258667 -21.83501465 113.42595215 -21.11010742 112.91088867 C-20.37252197 112.38342041 -19.63493652 111.85595215 -18.875 111.3125 C-18.11743408 110.77665283 -17.35986816 110.24080566 -16.5793457 109.6887207 C-13.29417442 107.36331756 -10.02890732 105.02153048 -6.80078125 102.6171875 C-5.93839844 101.98039062 -5.07601562 101.34359375 -4.1875 100.6875 C-3.45917969 100.13449219 -2.73085937 99.58148438 -1.98046875 99.01171875 C0 98 0 98 1.86157227 98.25463867 C4.36560357 99.12743323 6.07868397 100.31712261 8.1953125 101.9140625 C8.9896167 102.50751465 9.7839209 103.1009668 10.60229492 103.71240234 C11.4347876 104.34355957 12.26728027 104.9747168 13.125 105.625 C14.83138143 106.90191051 16.53840702 108.17796067 18.24609375 109.453125 C19.47368408 110.37254883 19.47368408 110.37254883 20.72607422 111.31054688 C24.75187846 114.30158889 28.8601237 117.16913343 33 120 C34.35380334 117.85091304 34.35380334 117.85091304 33.08789062 114.71533203 C32.61754602 113.31050705 32.13979512 111.90814867 31.65625 110.5078125 C31.14700452 108.98311663 30.63789415 107.45837563 30.12890625 105.93359375 C29.31568024 103.52732925 28.49906916 101.1222706 27.67919922 98.71826172 C26.89186674 96.40098288 26.11727247 94.0797309 25.34375 91.7578125 C25.09484009 91.04102325 24.84593018 90.32423401 24.58947754 89.58572388 C23.69268856 86.88190268 22.96561767 84.54689207 23.14575195 81.68164062 C24.22753673 79.55207974 25.34806131 78.67330314 27.32421875 77.3359375 C28.36364624 76.61917847 28.36364624 76.61917847 29.42407227 75.88793945 C30.17100342 75.38866943 30.91793457 74.88939941 31.6875 74.375 C33.23202661 73.3141744 34.77629312 72.25297 36.3203125 71.19140625 C37.10051758 70.66047363 37.88072266 70.12954102 38.68457031 69.58251953 C42.17224586 67.19880876 45.62035935 64.76130755 49.0625 62.3125 C49.66344482 61.89081543 50.26438965 61.46913086 50.88354492 61.03466797 C52.27403825 60.04847625 53.64011877 59.02799262 55 58 C55 57.67 55 57.34 55 57 C41.14 57 27.28 57 13 57 C12.34 54.03 11.68 51.06 11 48 C10.31247495 45.6551794 9.59242254 43.31958353 8.8359375 40.99609375 C8.43632812 39.76181641 8.03671875 38.52753906 7.625 37.25585938 C7.20842412 35.9830432 6.79175636 34.71025709 6.375 33.4375 C5.95014112 32.12968058 5.52565909 30.82173868 5.1015625 29.51367188 C4.07139602 26.34122737 3.03745343 23.17006745 2 20 C1.34 20 0.68 20 0 20 Z " fill="#000000" transform="translate(120,58)"/>
</svg>
